<?xml version="1.0" encoding="UTF-8"?>
<svg id="Capa_2" data-name="Capa 2" xmlns="http://www.w3.org/2000/svg" viewBox="0 0 256.1 334.28">
  <defs>
    <style>
      .cls-1 {
        fill-rule: evenodd;
      }

      .cls-1, .cls-2 {
        fill: #6a5248;
        stroke-width: 0px;
      }
    </style>
  </defs>
  <g id="Capa_1-2" data-name="Capa 1">
    <path class="cls-1" d="M0,235.23h80.09c.31,0,.6-.02.91-.03v-3.71c-.31,0-.6.03-.91.03h-36.01V3.36l36.01.34c72.94,0,91.35,127.26,55.26,191.55l28.53-33.19c4.01-4.79,7.98-9.62,11.84-14.55C188.94,80.66,157.15,0,80.09,0H0v.67c16.83,0,20.86,8.08,21.2,45.09v143.36c-.34,37.02-4.37,45.09-21.2,45.09v1.01Z"/>
    <path class="cls-2" d="M256.1,333.27v1.01h-70.67v-1.01c17.84,0,11.44-17.16-10.43-54.52l-41.73-65.96-23.22,26.92v59.23c1.01,27.93,6.06,34.33,20.86,34.33v1.01h-64.95v-1.01c16.83,0,20.86-8.08,21.2-45.09v-143.36c-.34-37.02-4.37-45.09-21.2-45.09v-.67h65.29v.67c-16.49,0-20.53,8.08-21.2,43.41v91.2l21.2-24.9-.34-.34,2.69-2.35,35-40.72c38.36-45.77,46.78-66.3,15.48-66.3v-.67h47.11l-82.11,95.57,47.79,75.38c29.61,47.11,40.05,63.27,59.23,63.27Z"/>
  </g>
</svg>